<?xml version="1.0" encoding="iso-8859-1"?>
<!-- Uploaded to: SVG Repo, www.svgrepo.com, Generator: SVG Repo Mixer Tools -->
<svg height="800px" width="800px" version="1.1" id="Layer_1" xmlns="http://www.w3.org/2000/svg" xmlns:xlink="http://www.w3.org/1999/xlink" 
	 viewBox="0 0 505.173 505.173" xml:space="preserve">
<path style="fill:#ECF4F7;" d="M430.933,158.72c0,0,68.267,102.4,68.267,213.333c0,68.267-8.533,128-51.2,128
	c-145.067,0-170.667-25.6-170.667-68.267V414.72V295.253v-153.6c0-5.12,0.853-9.387,2.56-14.507
	c5.973-14.507,17.92-24.747,17.92-24.747c7.68-7.68,17.92-11.947,30.72-11.947C396.8,90.453,430.933,158.72,430.933,158.72z
	 M4.267,372.053c0-110.933,68.267-213.333,68.267-213.333s34.133-68.267,102.4-68.267c11.947,0,22.187,4.267,29.867,11.947
	c0,0,12.8,10.24,17.92,25.6c1.707,4.267,2.56,9.387,2.56,14.507v153.6v119.467v17.067c0,42.667-25.6,68.267-170.667,68.267
	C12.8,500.053,4.267,440.32,4.267,372.053z"/>
<path style="fill:#51565F;" d="M448,504.32c-145.92,0-174.933-26.453-174.933-72.533V295.253l0,0v-128
	c0-2.56,1.707-4.267,4.267-4.267s4.267,1.707,4.267,4.267v121.173l28.16-13.653c1.707-0.853,4.267,0,5.973,1.707
	c0.853,1.707,0,4.267-1.707,5.973l-31.573,16.213v112.64h11.093l33.28-33.28c1.707-1.707,4.267-1.707,5.973,0
	c1.707,1.707,1.707,4.267,0,5.973l-26.453,26.453h23.893c2.56,0,4.267,1.707,4.267,4.267c0,2.56-1.707,4.267-4.267,4.267h-34.133
	l0,0h-12.8v12.8c0,26.453,7.68,50.347,83.627,59.733l29.013-29.013c1.707-1.707,4.267-1.707,5.973,0
	c1.707,1.707,1.707,4.267,0,5.973l-23.893,23.893c19.627,1.707,43.52,2.56,71.68,2.56c32.427,0,46.933-38.4,46.933-123.733
	c0-79.36-35.84-155.307-55.467-190.293l-14.507,14.507c-1.707,1.707-4.267,1.707-5.973,0c-1.707-1.707-1.707-4.267,0-5.973
	l16.213-16.213c-4.267-7.68-7.68-12.8-7.68-12.8c-0.853-0.853-34.133-66.56-98.987-66.56c-11.093,0-19.627,3.413-27.307,11.093
	c-1.707,1.707-4.267,1.707-5.973,0c-1.707-1.707-1.707-4.267,0-5.973c9.387-8.533,20.48-12.8,33.28-12.8
	c69.973,0,104.96,67.413,105.813,70.827c0,0.853,69.12,104.107,69.12,215.04C503.467,433.493,497.493,504.32,448,504.32z
	 M55.467,504.32C5.973,504.32,0,433.493,0,372.053C0,261.12,68.267,157.013,69.12,156.16c0.853-2.56,35.84-69.973,105.813-69.973
	c12.8,0,23.893,4.267,33.28,12.8c1.707,1.707,1.707,4.267,0,5.973c-1.707,1.707-4.267,1.707-5.973,0
	c-7.68-6.827-17.067-10.24-27.307-10.24c-64.853,0-98.133,64.853-98.987,65.707c0,0-3.413,5.12-8.533,13.653l16.213,16.213
	c1.707,1.707,1.707,4.267,0,5.973c-1.707,1.707-4.267,1.707-5.973,0L63.146,181.76C43.52,217.6,7.68,292.693,7.68,372.053
	c0,85.333,14.507,123.733,46.933,123.733c29.013,0,52.053-0.853,71.68-2.56L102.4,469.333c-1.707-1.707-1.707-4.267,0-5.973
	c1.707-1.707,4.267-1.707,5.973,0l29.013,29.013c75.947-9.387,83.627-33.28,83.627-59.733v-12.8h-12.8l0,0H174.08
	c-2.56,0-4.267-1.707-4.267-4.267s1.707-4.267,4.267-4.267h23.893l-26.453-26.453c-1.707-1.707-1.707-4.267,0-5.973
	c1.707-1.707,4.267-1.707,5.973,0l33.28,33.28h11.093V299.52l-31.573-16.213c-1.707-0.853-2.56-3.413-1.707-5.973
	c0.853-1.707,3.413-2.56,5.973-1.707l28.16,13.653V167.253c0-2.56,1.707-4.267,4.267-4.267s4.267,1.707,4.267,4.267v128l0,0v136.533
	C230.4,477.867,201.387,504.32,55.467,504.32z M448,350.72c-0.853,0-2.56,0-3.413-0.853L427.52,332.8
	c-1.707-1.707-1.707-4.267,0-5.973c1.707-1.707,4.267-1.707,5.973,0l17.067,17.067c1.707,1.707,1.707,4.267,0,5.973
	C450.56,350.72,448.853,350.72,448,350.72z M55.467,350.72c-0.853,0-2.56,0-3.413-0.853c-1.707-1.707-1.707-4.267,0-5.973
	l17.067-17.067c1.707-1.707,4.267-1.707,5.973,0c1.707,1.707,1.707,4.267,0,5.973l-17.067,17.067
	C58.027,350.72,56.32,350.72,55.467,350.72z M328.533,180.053c-0.853,0-2.56,0-3.413-0.853l-73.387-73.387L178.347,179.2
	c-1.707,1.707-4.267,1.707-5.973,0c-1.707-1.707-1.707-4.267,0-5.973L248.32,97.28V5.12c0-2.56,1.707-4.267,4.267-4.267
	c2.56,0,4.267,1.707,4.267,4.267v92.16l75.947,75.947c1.707,1.707,1.707,4.267,0,5.973
	C331.093,180.053,329.387,180.053,328.533,180.053z"/>
</svg>