<?xml version="1.0" encoding="iso-8859-1"?>
<!-- Uploaded to: SVG Repo, www.svgrepo.com, Generator: SVG Repo Mixer Tools -->
<svg height="800px" width="800px" version="1.1" id="Layer_1" xmlns="http://www.w3.org/2000/svg" xmlns:xlink="http://www.w3.org/1999/xlink" 
	 viewBox="0 0 503.467 503.467" xml:space="preserve">
<g transform="translate(5 1)">
	<path style="fill:#ECF4F7;" d="M187,88.6h-51.2h-17.067h-17.067V20.333c0-9.387,7.68-17.067,17.067-17.067h204.8
		c9.387,0,17.067,7.68,17.067,17.067V88.6h-17.067H289.4h-51.2H187z M408.867,225.133v136.533l-0.853,1.707
		c-5.12-1.707-11.093-1.707-16.213-1.707c-37.547,0-68.267,30.72-68.267,68.267H33.4v-204.8H408.867z"/>
	<path style="fill:#AAB1BA;" d="M408.867,182.467v42.667H33.4v-42.667c0-18.773,15.36-35.84,34.133-42.667l51.2-17.067V88.6H135.8
		H187h51.2h51.2h34.133v34.133l51.2,17.067C394.36,146.627,408.867,163.693,408.867,182.467z M391.8,498.2H67.533
		c-18.773,0-34.133-15.36-34.133-34.133v-34.133h290.133c0,18.773,7.68,35.84,19.627,48.64C355.96,490.52,373.027,498.2,391.8,498.2
		z"/>
	<g>
		<path style="fill:#80D6FA;" d="M440.44,381.293c11.947,11.947,19.627,29.013,19.627,48.64c0,37.547-30.72,68.267-68.267,68.267
			c-18.773,0-35.84-7.68-48.64-19.627L440.44,381.293z"/>
		<path style="fill:#80D6FA;" d="M440.44,381.293l-96.427,96.427c-11.947-11.947-19.627-29.013-19.627-48.64
			c0-37.547,30.72-68.267,68.267-68.267c5.973,0,11.093,0.853,16.213,1.707C420.813,366.787,431.907,372.76,440.44,381.293"/>
	</g>
	<polygon style="fill:#FF7474;" points="272.333,310.467 272.333,344.6 238.2,344.6 238.2,378.733 204.067,378.733 204.067,344.6 
		169.933,344.6 169.933,310.467 204.067,310.467 204.067,276.333 238.2,276.333 238.2,310.467 	"/>
</g>
<path style="fill:#51565F;" d="M396.8,503.467c-19.627,0-37.547-7.68-51.2-20.48c0,0,0,0-0.853,0c-0.853,0,0,0,0-0.853
	c-12.8-12.8-20.48-30.72-20.48-51.2c0-40.107,32.427-72.533,72.533-72.533c19.627,0,37.547,7.68,51.2,20.48c0,0,0,0,0.853,0
	c0.853,0,0,0,0,0.853c12.8,12.8,20.48,30.72,20.48,51.2C469.333,471.04,436.907,503.467,396.8,503.467z M354.987,478.72
	c11.093,10.24,25.6,16.213,41.813,16.213c34.987,0,64-29.013,64-64c0-16.213-5.973-30.72-16.213-41.813L354.987,478.72z
	 M396.8,366.933c-34.987,0-64,29.013-64,64c0,16.213,5.973,30.72,16.213,41.813l90.453-90.453
	C427.52,372.907,413.013,366.933,396.8,366.933z M320,503.467H72.533c-21.333,0-38.4-17.067-38.4-38.4v-281.6
	c0-19.627,14.507-38.4,36.693-46.933l51.2-17.067c2.56-0.853,4.267,0.853,5.12,2.56c0.853,2.56-0.853,4.267-2.56,5.12l-51.2,17.067
	c-17.92,6.827-31.573,23.04-31.573,38.4v38.4h366.933v-37.547c0-16.213-12.8-31.573-31.573-38.4L325.973,128
	c-1.707-0.853-2.56-2.56-2.56-4.267V89.6c0-2.56,1.707-4.267,4.267-4.267h12.8v-64c0-6.827-5.973-12.8-12.8-12.8h-204.8
	c-6.827,0-12.8,5.973-12.8,12.8v64h25.6V55.467c0-2.56,1.707-4.267,4.267-4.267c2.56,0,4.267,1.707,4.267,4.267v29.867h42.667
	V55.467c0-2.56,1.707-4.267,4.267-4.267s4.267,1.707,4.267,4.267v29.867h42.667V55.467c0-2.56,1.707-4.267,4.267-4.267
	c2.56,0,4.267,1.707,4.267,4.267v29.867h42.667V55.467c0-2.56,1.707-4.267,4.267-4.267s4.267,1.707,4.267,4.267V89.6
	c0,2.56-1.707,4.267-4.267,4.267H105.813c-2.56,0-4.267-1.707-4.267-4.267V21.333C101.547,9.387,110.933,0,122.88,0h204.8
	c11.947,0,21.333,9.387,21.333,21.333V89.6c0,2.56-1.707,4.267-4.267,4.267h-12.8v26.453l48.64,16.213
	c22.187,7.68,36.693,26.453,36.693,46.933v147.627c0,2.56-1.707,4.267-4.267,4.267s-4.267-1.707-4.267-4.267V230.4H41.813v196.267
	h251.733c2.56,0,4.267,1.707,4.267,4.267c0,2.56-1.707,4.267-4.267,4.267H41.813v29.867c0,16.213,13.653,29.867,29.867,29.867
	h247.467c2.56,0,4.267,1.707,4.267,4.267C323.413,501.76,322.56,503.467,320,503.467z M243.2,384h-34.133
	c-2.56,0-4.267-1.707-4.267-4.267v-29.867h-29.867c-2.56,0-4.267-1.707-4.267-4.267v-34.133c0-2.56,1.707-4.267,4.267-4.267H204.8
	v-29.867c0-2.56,1.707-4.267,4.267-4.267H243.2c2.56,0,4.267,1.707,4.267,4.267V307.2h29.867c2.56,0,4.267,1.707,4.267,4.267V345.6
	c0,2.56-1.707,4.267-4.267,4.267h-29.867v29.867C247.467,382.293,245.76,384,243.2,384z M213.333,375.467h25.6V345.6
	c0-2.56,1.707-4.267,4.267-4.267h29.867v-25.6H243.2c-2.56,0-4.267-1.707-4.267-4.267V281.6h-25.6v29.867
	c0,2.56-1.707,4.267-4.267,4.267H179.2v25.6h29.867c2.56,0,4.267,1.707,4.267,4.267V375.467z"/>
</svg>