<?xml version="1.0" encoding="iso-8859-1"?>
<!-- Uploaded to: SVG Repo, www.svgrepo.com, Generator: SVG Repo Mixer Tools -->
<svg height="800px" width="800px" version="1.1" id="Layer_1" xmlns="http://www.w3.org/2000/svg" xmlns:xlink="http://www.w3.org/1999/xlink" 
	 viewBox="0 0 503.68 503.68" xml:space="preserve">
<g transform="translate(1 1)">
	<path style="fill:#ECF4F7;" d="M489.88,80.173c11.947,11.947,11.093,31.573,0,42.667l-290.133,281.6
		c-8.533,8.533-17.067,8.533-25.6,8.533H131.48l-76.8,76.8c-11.093,11.093-31.573,11.093-42.667,0s-11.093-31.573,0-42.667
		L80.28,378.84c5.973-5.973,8.533-8.533,8.533-17.067V327.64c0-8.533,0-17.067,8.533-25.6l281.6-290.133
		c11.947-11.947,31.573-11.093,42.667,0L489.88,80.173z"/>
	<polyline style="fill:#FF7474;" points="310.68,191.107 174.147,327.64 148.547,302.04 285.08,165.507 	"/>
</g>
<path style="fill:#51565F;" d="M34.347,503.573c-9.387,0-17.92-3.413-24.747-9.387c-12.8-12.8-12.8-35.84,0-48.64l68.267-68.267
	c5.973-5.973,7.68-7.68,7.68-13.653v-34.133c0-8.533,0-18.773,9.387-29.013l281.6-290.133c6.827-6.827,15.36-10.24,24.747-10.24
	c9.387,0,17.92,3.413,23.893,9.387L493.44,77.76c6.827,6.827,10.24,15.36,10.24,24.747s-3.413,17.92-10.24,23.893L203.307,408
	c-9.387,9.387-19.627,9.387-28.16,9.387h-34.133c-2.56,0-4.267-1.707-4.267-4.267s1.707-4.267,4.267-4.267h34.133
	c8.533,0,15.36,0,22.187-7.68l290.133-281.6c5.12-5.12,7.68-11.093,7.68-17.92c0-6.827-2.56-13.653-7.68-18.773L419.2,14.613
	c-4.267-4.267-11.093-6.827-17.92-7.68c-6.827,0-13.653,2.56-18.773,7.68l-281.6,290.133c-7.68,7.68-7.68,14.507-7.68,23.04v34.133
	c0,10.24-3.413,13.653-9.387,20.48l-68.267,68.267c-9.387,9.387-9.387,27.307,0,36.693c9.387,9.387,27.307,9.387,36.693,0
	L112,427.626c1.707-1.707,4.267-1.707,5.973,0c1.707,1.707,1.707,4.267,0,5.973L58.24,493.333
	C52.267,500.16,43.733,503.573,34.347,503.573z M38.613,469.44c-0.853,0-2.56,0-3.413-0.853c-1.707-1.707-1.707-4.267,0-5.973
	l133.12-133.12l-22.187-22.187c-1.707-1.707-1.707-4.267,0-5.973c1.707-1.707,4.267-1.707,5.973,0l22.187,22.187l28.16-28.16
	L188.8,281.707c-1.707-1.707-1.707-4.267,0-5.973c1.707-1.707,4.267-1.707,5.973,0l13.653,13.653l28.16-28.16l-13.653-13.653
	c-1.707-1.707-1.707-4.267,0-5.973c1.707-1.707,4.267-1.707,5.973,0l13.653,13.653l28.16-28.16l-22.187-22.187
	c-1.707-1.707-1.707-4.267,0-5.973c1.707-1.707,4.267-1.707,5.973,0l22.187,22.187l28.16-28.16L291.2,179.307
	c-1.707-1.707-1.707-4.267,0-5.973c1.707-1.707,4.267-1.707,5.973,0l13.653,13.653l28.16-28.16l-13.653-13.653
	c-1.707-1.707-1.707-4.267,0-5.973c1.707-1.707,4.267-1.707,5.973,0l13.653,13.653l28.16-28.16l-22.187-22.187
	c-1.707-1.707-1.707-4.267,0-5.973c1.707-1.707,4.267-1.707,5.973,0l25.6,25.6c0.853,0.853,0.853,1.707,0.853,3.413
	c0,1.707-0.853,2.56-0.853,3.413l-34.133,34.133l0,0l0,0l-34.133,34.133l0,0l0,0l-34.133,34.133l0,0l0,0l-34.133,34.133l0,0l0,0
	l-204.8,204.8C40.32,469.44,39.467,469.44,38.613,469.44z"/>
</svg>